<svg viewBox="0 0 1024 1024" width="128" height="128" xmlns="http://www.w3.org/2000/svg">
  <path d="M989.6 254.4V896l-2.4 14.4c-12.8 66.4-69.6 113.6-137.6 113.6H173.6c-6.4 0-12.8 0-18.4-0.8-68-8.8-120.8-67.2-120.8-136V137.6C34.4 75.2 76.8 20.8 137.6 5.6c8-2.4 16.8-3.2 24.8-4.8h572l14.4 2.4c60.8 12 104.8 59.2 112.8 120.8 0 2.4 0.8 4 4 4 58.4 6.4 106.4 48.8 120 106.4 1.6 5.6 2.4 12.8 4 20z m-201.6-128v-2.4c-6.4-29.6-32.8-50.4-64-50.4H173.6c-36.8 0-65.6 28.8-65.6 65.6v746.4c0 36.8 28.8 65.6 65.6 65.6h676.8c37.6 0 65.6-28 65.6-65.6V265.6c0-4.8-0.8-9.6-1.6-14.4-7.2-31.2-32.8-51.2-64.8-51.2H277.6c-20-0.8-36-17.6-36-37.6 0-3.2 0.8-6.4 1.6-8.8 4.8-16.8 19.2-26.4 37.6-26.4l507.2-0.8z" />
  <path d="M472.8 508c1.6-4.8 0-8-3.2-11.2-43.2-42.4-85.6-85.6-128-128-14.4-14.4-14.4-36.8 0.8-50.4 12.8-11.2 31.2-11.2 44 0 1.6 1.6 3.2 3.2 4.8 4L504 435.2c1.6 1.6 2.4 3.2 4 4.8 1.6-1.6 3.2-3.2 4.8-4 40-39.2 80-77.6 120-116.8 16-15.2 39.2-13.6 52 3.2 10.4 13.6 8.8 32.8-4 44.8L588 457.6c-13.6 13.6-28 27.2-41.6 40.8-3.2 2.4-4.8 5.6-3.2 10.4h141.6c13.6 0 24 6.4 30.4 18.4 6.4 12 4.8 24-2.4 35.2-7.2 9.6-16.8 14.4-28 14.4h-144v59.2H685.6c18.4 0 33.6 15.2 33.6 33.6 0 4.8-0.8 9.6-3.2 14.4-6.4 13.6-17.6 20-32 20H540.8V798.4c0 13.6-8.8 26.4-21.6 31.2-12.8 4.8-28 1.6-36.8-8.8-6.4-6.4-8.8-15.2-8.8-24V703.2H331.2c-18.4 0-32.8-12.8-34.4-29.6-2.4-18.4 10.4-35.2 28.8-37.6H472.8V576H328c-24.8 0-41.6-25.6-31.2-48 6.4-13.6 16.8-20 32-20h144z"/>
</svg>
